HIERARCHY
ROOT pelvis
{
  OFFSET 0 100 0
  CHANNELS 6 Xposition Yposition Zposition Zrotation Xrotation Yrotation
  JOINT pelvis_right_femur
  {
    OFFSET -10.78128 -3.44521 -0.5502486
    CHANNELS 3 Zrotation Xrotation Yrotation
    JOINT right_femur_tibia
    {
      OFFSET -0.8047443 -44.0398 -0.1307829
      CHANNELS 3 Zrotation Xrotation Yrotation
      JOINT right_tibia_foot
      {
        OFFSET 3.006224 -47.83518 -5
        CHANNELS 3 Zrotation Xrotation Yrotation
        End Site
        {
          OFFSET 0 -5 15
        }
      }
    }
  }
  JOINT pelvis_left_femur
  {
    OFFSET 10.78128 -3.44521 -0.5502486
    CHANNELS 3 Zrotation Xrotation Yrotation
    JOINT left_femur_tibia
    {
      OFFSET 0.8047443 -44.0398 -0.1307829
      CHANNELS 3 Zrotation Xrotation Yrotation
      JOINT left_tibia_foot
      {
        OFFSET -4.370144 -48.10324 -4.275266
        CHANNELS 3 Zrotation Xrotation Yrotation
        End Site
        {
          OFFSET 0 -5 15
        }
      }
    }
  }
  JOINT pelvis_spine1
  {
    OFFSET 0 6.468898 -3.129235
    CHANNELS 3 Zrotation Xrotation Yrotation
    JOINT spine1
    {
      OFFSET 0 23.15396 4.99043
      CHANNELS 3 Zrotation Xrotation Yrotation
      JOINT spine2
      {
        OFFSET 0 20.79997 -5.064912
        CHANNELS 3 Zrotation Xrotation Yrotation
        JOINT neck
        {
          OFFSET 0 14.38658 9.616178
          CHANNELS 3 Zrotation Xrotation Yrotation
          End Site
          {
            OFFSET 0 20 0
          }
        }
      }
      JOINT right_manubrium
      {
        OFFSET -5.722621 16.35077 3.967754
        CHANNELS 3 Zrotation Xrotation Yrotation
        JOINT right_clavicle
        {
          OFFSET -13.16364 1.694482 -4.693211
          CHANNELS 3 Zrotation Xrotation Yrotation
          JOINT right_humerus
          {
            OFFSET -28.5034 -0.3100689 -2.792744
            CHANNELS 3 Zrotation Xrotation Yrotation
            JOINT right_radius
            {
              OFFSET -25.15693 0.02248979 -1.271978
              CHANNELS 3 Zrotation Xrotation Yrotation
              End Site
              {
                OFFSET -15 0 0
              }
            }
          }
        }
      }
      JOINT left_manubrium
      {
        OFFSET 5.722621 16.35077 3.967754
        CHANNELS 3 Zrotation Xrotation Yrotation
        JOINT left_clavicle
        {
          OFFSET 13.16364 1.694482 -4.693211
          CHANNELS 3 Zrotation Xrotation Yrotation
          JOINT left_humerus
          {
            OFFSET 29.39168 -1.063119 -2.237045
            CHANNELS 3 Zrotation Xrotation Yrotation
            JOINT left_radius
            {
              OFFSET 24.59957 -0.9528479 0.9047498
              CHANNELS 3 Zrotation Xrotation Yrotation
              End Site
              {
                OFFSET 15 -0 -0
              }
            }
          }
        }
      }
    }
  }
}
MOTION
Frames: 17
Frame Time: 0.0416666666667
337.2096 105.3736 3061.153 1.405452 -5.046801 8.960562 3.714991 -21.33577 2.807442 -0 11.67763 -0 -0.827878 0.00242283 -8.672875 -4.310883 17.80896 -6.481425 -0 33.41293 -0 -7.458337 -14.55682 12.2605 -1.409382 -0.7197025 6.683739 -1.011475 14.12295 -7.685529 -1.462693 19.76167 6.811917 8.172056 -16.80537 0.7333562 0.8271221 -22.71486 10.85371 91.74874 31.71044 -19.8813 -0 0 19.94652 -20.92722 5.953828 2.781377 8.638928 -29.12559 -9.340522 -86.42408 3.045729 18.46094 0 0 -21.25452 15.64167 6.795093 -10.17591
337.7172 105.8437 3068.474 0.8969195 -5.894394 8.687879 5.082581 -17.86549 3.954402 -0 15.07651 -0 -1.731637 -1.258904 -8.607128 -3.62323 15.68933 -6.528971 -0 41.56747 -0 -8.041284 -11.65896 13.06443 -1.601284 -0.4190282 6.942768 -1.265552 13.88721 -7.276965 -1.500212 19.68182 6.999487 8.496638 -16.66438 0.7072645 1.000349 -23.05848 10.7091 91.35432 33.30748 -18.68676 -0 0 20.87736 -20.73364 5.187891 2.718284 8.196911 -28.4443 -9.218251 -86.81151 2.631461 19.95982 0 0 -18.89571 14.93762 6.15884 -9.451434
338.2009 106.7895 3075.543 0.6653142 -6.866957 8.108975 5.836331 -13.6541 4.704239 -0 17.54101 -0 -2.48933 -3.020179 -8.22185 -3.151036 11.78581 -6.569539 -0 49.30688 -0 -8.212935 -9.215825 14.09851 -1.814766 -0.09635276 7.159792 -1.572295 13.55405 -6.754286 -1.486971 19.65644 7.221149 8.843063 -16.50849 0.766161 1.219414 -23.33487 10.55619 90.79418 35.06184 -17.21652 -0 0 21.75787 -20.63118 4.379946 2.830138 7.72298 -27.58483 -9.027464 -87.22738 2.269277 21.43667 0 0 -16.22541 14.22831 5.62448 -8.705977
338.6861 107.975 3082.241 0.8158386 -7.772736 7.335257 5.887436 -8.915896 5.028598 -0 18.15251 -0 -2.832589 -4.721638 -7.569129 -2.91745 6.465599 -6.46867 -0 55.2684 -0 -8.128933 -7.685419 15.24235 -2.01331 0.1986597 7.31216 -1.891759 13.16262 -6.178982 -1.421141 19.69018 7.443341 9.160867 -16.34813 0.9031291 1.456352 -23.51487 10.4182 90.09943 36.71788 -15.61544 -0 0 22.49524 -20.64608 3.652386 3.123217 7.278038 -26.65407 -8.78502 -87.64157 2.015665 22.72172 0 0 -13.55542 13.59643 5.288876 -8.018908
339.1784 109.1263 3088.556 1.198661 -8.457756 6.492173 5.475333 -3.898421 5.066933 -0 17.12538 -0 -2.789307 -6.195524 -6.703999 -2.678171 0.2774456 -6.214401 -0 57.99206 -0 -7.991892 -7.070408 16.43626 -2.174571 0.440517 7.410128 -2.193958 12.75433 -5.600063 -1.316811 19.7699 7.643468 9.424246 -16.18768 1.091115 1.687624 -23.61599 10.30725 89.31184 38.12798 -13.99187 -0 0 23.08389 -20.76048 3.060702 3.556336 6.88528 -25.73774 -8.518126 -88.05295 1.883499 23.79181 0 0 -11.05367 13.06327 5.159129 -7.404648
339.6837 109.9841 3094.544 1.536124 -8.79011 5.653132 4.945508 1.064508 4.954733 -0 15.24013 -0 -2.566013 -7.715844 -5.663436 -2.148821 -6.211506 -5.842701 -0 56.54545 -0 -7.887479 -7.050998 17.61497 -2.290932 0.6236639 7.480104 -2.463854 12.35752 -5.0438 -1.192833 19.87556 7.813888 9.629462 -16.03197 1.302128 1.895915 -23.67899 10.22509 88.47081 39.25006 -12.40465 -0 0 23.56634 -20.93863 2.59997 4.077592 6.539886 -24.88493 -8.251202 -88.47561 1.857545 24.71242 0 0 -8.765211 12.61134 5.183697 -6.835652
340.2246 110.3555 3100.305 1.614778 -8.680652 4.835187 4.540319 5.614575 4.760673 -0 13.2635 -0 -2.312923 -9.61867 -4.502789 -1.218246 -12.45159 -5.350961 -0 51.06184 -0 -7.764755 -7.245195 18.67451 -2.363711 0.7515122 7.544881 -2.696412 11.98739 -4.522056 -1.064665 19.98941 7.9556 9.78237 -15.88945 1.516921 2.069652 -23.74079 10.16845 87.61123 40.09553 -10.88672 -0 0 23.98701 -21.14916 2.242738 4.645766 6.231423 -24.11815 -8.000516 -88.91928 1.91498 25.55311 0 0 -6.692487 12.21862 5.29991 -6.284344
340.8376 110.1584 3105.967 1.388543 -8.129549 4.030914 4.312223 9.498843 4.514282 -0 11.73579 -0 -2.041968 -11.94287 -3.318777 -0.009205498 -17.92982 -4.737126 -0 42.77017 -0 -7.531134 -7.387493 19.50788 -2.399289 0.8306437 7.612024 -2.890161 11.6537 -4.045771 -0.9421648 20.09992 8.070714 9.889276 -15.7701 1.724053 2.203475 -23.8172 10.13279 86.77277 40.69053 -9.477789 -0 0 24.36445 -21.37093 1.969112 5.227735 5.959358 -23.44918 -7.775648 -89.37332 2.034135 26.33238 0 0 -4.859436 11.8791 5.461864 -5.753333
341.5595 109.4413 3111.669 0.9788072 -7.252544 3.23606 4.137184 12.65401 4.241261 -0 11.02583 -0 -1.704842 -14.30727 -2.22677 1.155652 -22.23395 -4.106047 -0 33.58769 -0 -7.138105 -7.389774 20.05546 -2.407493 0.8704115 7.671418 -3.043738 11.36827 -3.633317 -0.8307116 20.20233 8.158379 9.954408 -15.6801 1.914646 2.299993 -23.89626 10.11411 86.00927 41.06239 -8.244905 -0 0 24.68215 -21.58989 1.778333 5.786608 5.736641 -22.88985 -7.58358 -89.80096 2.193967 27.00322 0 0 -3.330985 11.60663 5.648632 -5.283926
342.4179 108.3693 3117.552 0.6076864 -6.263589 2.461818 3.796813 15.1779 3.981252 -0 11.46288 -0 -1.288887 -15.99714 -1.327177 1.85532 -25.12492 -3.70158 -0 25.50406 -0 -6.604451 -7.315834 20.32733 -2.399689 0.8832777 7.701081 -3.154752 11.14922 -3.311529 -0.7338998 20.29699 8.214532 9.98126 -15.61783 2.07746 2.369488 -23.9437 10.10989 85.39014 41.237 -7.284514 -0 0 24.89463 -21.79333 1.685179 6.27338 5.584022 -22.45799 -7.43334 -90.14649 2.37156 27.47413 0 0 -2.198443 11.42758 5.85845 -4.943634
343.4261 107.1855 3123.733 0.4914544 -5.414438 1.744583 3.106559 17.1862 3.795933 -0 13.42517 -0 -0.8381118 -16.21277 -0.6988046 1.753204 -26.54457 -3.787777 -0 19.96001 -0 -5.984405 -7.299121 20.38606 -2.385818 0.8822501 7.679062 -3.218832 11.02043 -3.111297 -0.6566316 20.38524 8.234255 9.973802 -15.57627 2.197473 2.424678 -23.92046 10.11956 84.99142 41.23547 -6.707346 -0 0 24.94633 -21.96391 1.707518 6.62866 5.519891 -22.17988 -7.339115 -90.35282 2.542592 27.65264 0 0 -1.553958 11.3688 6.092377 -4.799143
344.5788 106.161 3130.279 0.7324632 -4.911918 1.159821 2.040642 18.62579 3.759852 -0 17.30687 -0 -0.4019268 -14.42123 -0.4133749 0.7863743 -26.53343 -4.454745 -0 17.44707 -0 -5.317007 -7.448256 20.3012 -2.371367 0.8752467 7.595562 -3.228762 11.00537 -3.060163 -0.6066004 20.46438 8.214702 9.935456 -15.55144 2.259337 2.471959 -23.80505 10.14419 84.87806 41.06767 -6.610505 -0 0 24.79703 -22.07768 1.853404 6.796507 5.552117 -22.08768 -7.318641 -90.3813 2.686235 27.48805 0 0 -1.471133 11.44706 6.337372 -4.888348
345.8475 105.5442 3137.164 1.264131 -4.848594 0.8206344 0.7872818 19.17439 3.91034 -0 23.32678 -0 0.01729078 -10.67893 -0.5421557 -0.7819334 -25.13631 -5.524738 -0 17.48964 -0 -4.60524 -7.796 20.11016 -2.355504 0.8599558 7.458185 -3.176042 11.11726 -3.174018 -0.5924255 20.52566 8.156636 9.867127 -15.54953 2.253548 2.504865 -23.60695 10.18515 85.08264 40.72729 -7.044665 -0 0 24.44185 -22.11187 2.115349 6.745629 5.677209 -22.21046 -7.385838 -90.22415 2.791701 26.98946 0 0 -1.993718 11.66425 6.563534 -5.207108
347.183 105.5073 3144.252 1.883072 -5.180297 0.8387248 -0.3099184 18.32896 4.17984 -0 31.22709 -0 0.443585 -5.746345 -1.133407 -2.498369 -22.39837 -6.653629 -0 18.96867 -0 -3.843783 -8.316617 19.81723 -2.331289 0.8237018 7.287533 -3.055375 11.35122 -3.450625 -0.6191616 20.55766 8.063745 9.766555 -15.58471 2.180968 2.505499 -23.36164 10.24275 85.58968 40.19399 -7.989832 -0 0 23.91439 -22.05932 2.474267 6.485622 5.885562 -22.56177 -7.542047 -89.90448 2.862036 26.21274 0 0 -3.125512 12.0087 6.740183 -5.715962
348.5287 106.0895 3151.314 2.351288 -5.759992 1.262854 -0.9209547 15.65962 4.402137 -0 40.0203 -0 0.8410109 -0.8739268 -2.154177 -3.944132 -18.45643 -7.542761 -0 20.59203 -0 -3.057399 -8.983598 19.42417 -2.288269 0.7492691 7.106822 -2.868714 11.68382 -3.868444 -0.6843002 20.55342 7.940632 9.629467 -15.66878 2.053172 2.453943 -23.11096 10.31599 86.3353 39.44403 -9.354596 -0 0 23.27045 -21.93654 2.909323 6.066462 6.166342 -23.13059 -7.772479 -89.466 2.91316 25.23068 0 0 -4.82158 12.45959 6.857746 -6.358118
349.8374 107.1606 3158.097 2.51317 -6.403394 2.042582 -0.9245304 11.07907 4.424367 -0 48.0077 -0 1.064206 2.697543 -3.436664 -4.894337 -13.62793 -8.081122 -0 21.32822 -0 -2.304061 -9.815413 18.94875 -2.216725 0.6229202 6.932353 -2.625844 12.07989 -4.391652 -0.7771116 20.51542 7.791536 9.451924 -15.80204 1.889408 2.339059 -22.88312 10.40322 87.22466 38.46568 -11.00132 -0 0 22.56377 -21.77813 3.405689 5.56163 6.508431 -23.8807 -8.050046 -88.95834 2.96856 24.10705 0 0 -6.988909 12.99208 6.936883 -7.07679
351.0802 108.4373 3164.417 2.367101 -6.94488 3.048184 -0.4762341 4.964103 4.201319 -0 53.21702 -0 0.9488886 4.273312 -4.719011 -5.340176 -8.393602 -8.324186 -0 20.69533 -0 -1.654039 -10.87634 18.40323 -2.111699 0.4399854 6.769825 -2.342191 12.50148 -4.978223 -0.8816781 20.45492 7.620947 9.233266 -15.97279 1.712203 2.16351 -22.68479 10.5024 88.15842 37.27312 -12.78236 -0 0 21.83032 -21.62326 3.954174 5.046023 6.89914 -24.75773 -8.343134 -88.42452 3.051059 22.88628 0 0 -9.499704 13.58128 7.018352 -7.825682
